<svg width="800" height="700" viewBox="0 0 800 700" fill="none" xmlns="http://www.w3.org/2000/svg">
<rect width="800" height="700" fill="#283043"/>
<path d="M224.541 358.32C223.421 358.32 222.274 357.573 221.101 356.08L205.501 335.36L199.501 341.52V354.72C199.501 355.84 199.181 356.72 198.541 357.36C197.954 358 197.154 358.32 196.141 358.32C195.181 358.32 194.381 358 193.741 357.36C193.154 356.72 192.861 355.84 192.861 354.72V313.76C192.861 312.64 193.154 311.76 193.741 311.12C194.381 310.48 195.181 310.16 196.141 310.16C197.154 310.16 197.954 310.48 198.541 311.12C199.181 311.76 199.501 312.64 199.501 313.76V332.96L219.101 312C220.274 310.773 221.447 310.16 222.621 310.16C223.527 310.16 224.274 310.453 224.861 311.04C225.447 311.573 225.741 312.267 225.741 313.12C225.741 314.133 225.181 315.28 224.061 316.56L210.141 330.64L226.461 351.92C227.367 353.093 227.821 354.187 227.821 355.2C227.821 356.053 227.501 356.773 226.861 357.36C226.274 358 225.501 358.32 224.541 358.32ZM256.029 358.32C250.856 358.32 246.883 356.773 244.109 353.68C241.336 350.587 239.949 346.24 239.949 340.64V313.76C239.949 312.64 240.243 311.76 240.829 311.12C241.469 310.48 242.269 310.16 243.229 310.16C244.189 310.16 244.989 310.48 245.629 311.12C246.269 311.76 246.589 312.64 246.589 313.76V340C246.589 348.16 249.736 352.24 256.029 352.24C262.429 352.24 265.629 348.16 265.629 340V313.76C265.629 312.64 265.923 311.76 266.509 311.12C267.149 310.48 267.949 310.16 268.909 310.16C269.923 310.16 270.723 310.48 271.309 311.12C271.949 311.76 272.269 312.64 272.269 313.76V340.64C272.269 346.24 270.856 350.587 268.029 353.68C265.256 356.773 261.256 358.32 256.029 358.32ZM288.878 353.68V313.76C288.878 312.64 289.171 311.76 289.758 311.12C290.398 310.48 291.198 310.16 292.158 310.16C293.171 310.16 293.971 310.48 294.558 311.12C295.198 311.76 295.518 312.64 295.518 313.76V351.28C309.598 351.067 317.091 350.96 317.998 350.96C319.171 350.96 320.078 351.253 320.718 351.84C321.358 352.373 321.678 353.12 321.678 354.08C321.678 355.04 321.331 355.813 320.638 356.4C319.998 356.933 319.118 357.2 317.998 357.2H292.238C291.225 357.2 290.398 356.907 289.758 356.32C289.171 355.68 288.878 354.8 288.878 353.68ZM336.847 353.68V313.76C336.847 312.64 337.14 311.76 337.727 311.12C338.367 310.48 339.167 310.16 340.127 310.16C341.14 310.16 341.94 310.48 342.527 311.12C343.167 311.76 343.487 312.64 343.487 313.76V351.28C357.567 351.067 365.06 350.96 365.967 350.96C367.14 350.96 368.047 351.253 368.687 351.84C369.327 352.373 369.647 353.12 369.647 354.08C369.647 355.04 369.3 355.813 368.607 356.4C367.967 356.933 367.087 357.2 365.967 357.2H340.207C339.194 357.2 338.367 356.907 337.727 356.32C337.14 355.68 336.847 354.8 336.847 353.68ZM391.216 347.12C393.296 350.533 396.229 352.24 400.016 352.24C403.802 352.24 406.736 350.533 408.816 347.12C410.896 343.707 411.936 339.387 411.936 334.16C411.936 328.933 410.896 324.64 408.816 321.28C406.736 317.92 403.802 316.24 400.016 316.24C396.176 316.24 393.216 317.92 391.136 321.28C389.109 324.64 388.096 328.933 388.096 334.16C388.096 339.387 389.136 343.707 391.216 347.12ZM413.856 351.52C410.602 356.053 405.989 358.32 400.016 358.32C394.042 358.32 389.429 356.053 386.176 351.52C382.922 346.987 381.296 341.2 381.296 334.16C381.296 327.173 382.922 321.44 386.176 316.96C389.429 312.427 394.042 310.16 400.016 310.16C405.989 310.16 410.602 312.427 413.856 316.96C417.109 321.44 418.736 327.173 418.736 334.16C418.736 341.2 417.109 346.987 413.856 351.52Z" fill="white"/>
<path d="M432.784 353.68V313.76C432.784 312.64 433.078 311.76 433.664 311.12C434.304 310.48 435.104 310.16 436.064 310.16C437.078 310.16 437.878 310.48 438.464 311.12C439.104 311.76 439.424 312.64 439.424 313.76V351.28C453.504 351.067 460.998 350.96 461.904 350.96C463.078 350.96 463.984 351.253 464.624 351.84C465.264 352.373 465.584 353.12 465.584 354.08C465.584 355.04 465.238 355.813 464.544 356.4C463.904 356.933 463.024 357.2 461.904 357.2H436.144C435.131 357.2 434.304 356.907 433.664 356.32C433.078 355.68 432.784 354.8 432.784 353.68ZM483.153 358.32C482.14 358.32 481.313 358 480.673 357.36C480.086 356.72 479.793 355.84 479.793 354.72V327.84C479.793 322.293 481.18 317.973 483.953 314.88C486.726 311.733 490.726 310.16 495.953 310.16C501.18 310.16 505.18 311.733 507.953 314.88C510.726 317.973 512.113 322.293 512.113 327.84V354.72C512.113 355.84 511.793 356.72 511.153 357.36C510.566 358 509.793 358.32 508.833 358.32C507.82 358.32 506.993 358 506.353 357.36C505.766 356.72 505.473 355.84 505.473 354.72V342.08H486.433V354.72C486.433 355.84 486.113 356.72 485.473 357.36C484.886 358 484.113 358.32 483.153 358.32ZM486.433 336.16H505.473V328.56C505.473 324.453 504.726 321.36 503.233 319.28C501.74 317.2 499.313 316.16 495.953 316.16C489.606 316.16 486.433 320.293 486.433 328.56V336.16ZM543.922 357.2H532.162C531.149 357.2 530.322 356.907 529.682 356.32C529.042 355.68 528.722 354.8 528.722 353.68V314.72C528.722 313.653 529.042 312.827 529.682 312.24C530.322 311.6 531.149 311.28 532.162 311.28H543.282C548.722 311.28 552.962 312.347 556.002 314.48C559.095 316.56 560.642 319.573 560.642 323.52C560.642 328 558.535 331.253 554.322 333.28C559.602 335.36 562.242 338.853 562.242 343.76C562.242 348.24 560.535 351.6 557.122 353.84C553.762 356.08 549.362 357.2 543.922 357.2ZM544.242 336.64H535.362V351.36H544.322C551.735 351.36 555.442 348.827 555.442 343.76C555.442 339.013 551.709 336.64 544.242 336.64ZM543.602 317.12H535.362V331.12H543.522C546.775 331.12 549.309 330.533 551.122 329.36C552.935 328.187 553.842 326.453 553.842 324.16C553.842 321.867 552.935 320.133 551.122 318.96C549.362 317.733 546.855 317.12 543.602 317.12ZM591.571 358.32C586.131 358.32 581.437 357.093 577.491 354.64C575.091 353.093 573.891 351.547 573.891 350C573.891 349.147 574.184 348.453 574.771 347.92C575.411 347.333 576.157 347.04 577.011 347.04C578.024 347.04 579.411 347.68 581.171 348.96C584.264 351.093 587.784 352.16 591.731 352.16C594.877 352.16 597.517 351.52 599.651 350.24C601.784 348.907 602.851 347.067 602.851 344.72C602.851 342.64 601.891 341.04 599.971 339.92C598.104 338.8 595.171 337.76 591.171 336.8C585.624 335.52 581.464 333.867 578.691 331.84C575.917 329.76 574.531 326.747 574.531 322.8C574.531 318.907 576.131 315.84 579.331 313.6C582.531 311.307 586.477 310.16 591.171 310.16C596.771 310.16 601.384 311.467 605.011 314.08C606.771 315.147 607.651 316.373 607.651 317.76C607.651 318.667 607.357 319.413 606.771 320C606.237 320.587 605.544 320.88 604.691 320.88C603.784 320.88 602.664 320.427 601.331 319.52C598.077 317.387 594.611 316.32 590.931 316.32C587.997 316.32 585.677 316.907 583.971 318.08C582.264 319.253 581.411 320.8 581.411 322.72C581.411 323.84 581.677 324.827 582.211 325.68C582.797 326.48 583.651 327.173 584.771 327.76C585.944 328.347 587.064 328.827 588.131 329.2C589.251 329.573 590.691 329.973 592.451 330.4C598.424 331.893 602.797 333.6 605.571 335.52C608.344 337.387 609.731 340.293 609.731 344.24C609.731 348.72 607.997 352.187 604.531 354.64C601.117 357.093 596.797 358.32 591.571 358.32Z" fill="#B55D4D"/>
</svg>
