<svg width="100" height="100" viewBox="0 0 100 100" fill="none" xmlns="http://www.w3.org/2000/svg">
<rect width="100" height="100" fill="white"/>
<path d="M20.15 58.42C19.73 58.42 19.3 58.14 18.86 57.58L13.01 49.81L10.76 52.12V57.07C10.76 57.49 10.64 57.82 10.4 58.06C10.18 58.3 9.88 58.42 9.5 58.42C9.14 58.42 8.84 58.3 8.6 58.06C8.38 57.82 8.27 57.49 8.27 57.07V41.71C8.27 41.29 8.38 40.96 8.6 40.72C8.84 40.48 9.14 40.36 9.5 40.36C9.88 40.36 10.18 40.48 10.4 40.72C10.64 40.96 10.76 41.29 10.76 41.71V48.91L18.11 41.05C18.55 40.59 18.99 40.36 19.43 40.36C19.77 40.36 20.05 40.47 20.27 40.69C20.49 40.89 20.6 41.15 20.6 41.47C20.6 41.85 20.39 42.28 19.97 42.76L14.75 48.04L20.87 56.02C21.21 56.46 21.38 56.87 21.38 57.25C21.38 57.57 21.26 57.84 21.02 58.06C20.8 58.3 20.51 58.42 20.15 58.42Z" fill="black"/>
<path d="M26.2883 56.68V41.71C26.2883 41.29 26.3983 40.96 26.6183 40.72C26.8583 40.48 27.1583 40.36 27.5183 40.36C27.8983 40.36 28.1983 40.48 28.4183 40.72C28.6583 40.96 28.7783 41.29 28.7783 41.71V55.78C34.0583 55.7 36.8683 55.66 37.2083 55.66C37.6483 55.66 37.9883 55.77 38.2283 55.99C38.4683 56.19 38.5883 56.47 38.5883 56.83C38.5883 57.19 38.4583 57.48 38.1983 57.7C37.9583 57.9 37.6283 58 37.2083 58H27.5483C27.1683 58 26.8583 57.89 26.6183 57.67C26.3983 57.43 26.2883 57.1 26.2883 56.68ZM49.0766 58.33C47.4766 58.33 46.1366 57.95 45.0566 57.19C43.9766 56.43 43.4366 55.42 43.4366 54.16C43.4366 52.9 43.9766 51.9 45.0566 51.16C46.1366 50.4 47.4766 50.02 49.0766 50.02C50.8966 50.02 52.3866 50.41 53.5466 51.19V50.17C53.5466 49.15 53.2066 48.36 52.5266 47.8C51.8466 47.22 50.8966 46.93 49.6766 46.93C48.5766 46.93 47.5666 47.16 46.6466 47.62C45.9466 47.94 45.4866 48.1 45.2666 48.1C44.9466 48.1 44.6866 48 44.4866 47.8C44.2866 47.6 44.1866 47.34 44.1866 47.02C44.1866 46.48 44.5866 46.03 45.3866 45.67C46.5866 45.09 48.0366 44.8 49.7366 44.8C53.8566 44.8 55.9166 46.6 55.9166 50.2V57.04C55.9166 57.44 55.8066 57.76 55.5866 58C55.3666 58.22 55.0766 58.33 54.7166 58.33C54.4166 58.33 54.1566 58.23 53.9366 58.03C53.7166 57.83 53.6066 57.58 53.6066 57.28V57.13C52.4666 57.93 50.9566 58.33 49.0766 58.33ZM49.7666 56.47C50.9266 56.47 51.8666 56.26 52.5866 55.84C53.3066 55.4 53.6666 54.84 53.6666 54.16C53.6666 53.48 53.3066 52.93 52.5866 52.51C51.8666 52.09 50.9266 51.88 49.7666 51.88C48.6066 51.88 47.6766 52.09 46.9766 52.51C46.2766 52.93 45.9266 53.48 45.9266 54.16C45.9266 54.84 46.2766 55.4 46.9766 55.84C47.6966 56.26 48.6266 56.47 49.7666 56.47ZM68.7448 58.33C66.8648 58.33 65.4848 57.71 64.6048 56.47V57.04C64.6048 57.44 64.4848 57.76 64.2448 58C64.0248 58.22 63.7548 58.33 63.4348 58.33C63.0748 58.33 62.7848 58.22 62.5648 58C62.3448 57.76 62.2348 57.44 62.2348 57.04V39.4C62.2348 38.98 62.3448 38.66 62.5648 38.44C62.8048 38.2 63.1048 38.08 63.4648 38.08C63.8048 38.08 64.0848 38.2 64.3048 38.44C64.5248 38.68 64.6348 39 64.6348 39.4V46.6C65.5748 45.4 66.9448 44.8 68.7448 44.8C70.5648 44.8 72.0548 45.43 73.2148 46.69C74.3748 47.93 74.9548 49.55 74.9548 51.55C74.9548 53.57 74.3748 55.21 73.2148 56.47C72.0548 57.71 70.5648 58.33 68.7448 58.33ZM65.5948 54.91C66.3348 55.75 67.2948 56.17 68.4748 56.17C69.6548 56.17 70.6148 55.75 71.3548 54.91C72.0948 54.05 72.4648 52.93 72.4648 51.55C72.4648 50.19 72.0948 49.09 71.3548 48.25C70.6148 47.39 69.6548 46.96 68.4748 46.96C67.2948 46.96 66.3348 47.39 65.5948 48.25C64.8548 49.09 64.4848 50.19 64.4848 51.55C64.4848 52.93 64.8548 54.05 65.5948 54.91ZM86.2531 58.33C84.1331 58.33 82.2831 57.91 80.7031 57.07C80.0231 56.71 79.6831 56.26 79.6831 55.72C79.6831 55.4 79.7831 55.14 79.9831 54.94C80.2031 54.74 80.4631 54.64 80.7631 54.64C81.0631 54.64 81.5631 54.84 82.2631 55.24C83.5031 55.92 84.8831 56.26 86.4031 56.26C87.6031 56.26 88.5031 56.09 89.1031 55.75C89.7031 55.39 90.0031 54.94 90.0031 54.4C90.0031 53.84 89.7031 53.43 89.1031 53.17C88.5231 52.91 87.4531 52.68 85.8931 52.48C84.0131 52.22 82.5831 51.81 81.6031 51.25C80.6231 50.69 80.1331 49.81 80.1331 48.61C80.1331 47.31 80.6731 46.35 81.7531 45.73C82.8331 45.11 84.2031 44.8 85.8631 44.8C87.6631 44.8 89.2631 45.14 90.6631 45.82C91.2431 46.1 91.5331 46.49 91.5331 46.99C91.5331 47.29 91.4331 47.55 91.2331 47.77C91.0331 47.97 90.7831 48.07 90.4831 48.07C90.1231 48.07 89.7231 47.96 89.2831 47.74C88.0831 47.14 86.8631 46.84 85.6231 46.84C84.6231 46.84 83.8431 46.99 83.2831 47.29C82.7431 47.59 82.4731 48 82.4731 48.52C82.4731 49.04 82.7831 49.43 83.4031 49.69C84.0431 49.95 85.0431 50.17 86.4031 50.35C88.4831 50.63 89.9931 51.04 90.9331 51.58C91.8731 52.12 92.3431 53.01 92.3431 54.25C92.3431 55.57 91.7931 56.58 90.6931 57.28C89.5931 57.98 88.1131 58.33 86.2531 58.33Z" fill="#B55D4D"/>
</svg>
